<?xml version="1.0" encoding="utf-8"?>
<!-- Generator: Adobe Illustrator 24.0.1, SVG Export Plug-In . SVG Version: 6.00 Build 0)  -->
<svg version="1.1" id="Layer_1" xmlns="http://www.w3.org/2000/svg" xmlns:xlink="http://www.w3.org/1999/xlink" x="0px" y="0px"
	 viewBox="0 0 1290.4 380.6" style="enable-background:new 0 0 1290.4 380.6;" xml:space="preserve">
<style type="text/css">
	.st0{fill:#25C9D0;}
	.st1{fill:#008C95;}
	.st2{fill:#003A40;}
</style>
<g>
	<g>
		
			<ellipse transform="matrix(0.6537 -0.7568 0.7568 0.6537 -101.148 159.6213)" class="st0" cx="123.8" cy="190.3" rx="41.4" ry="41.4"/>
	</g>
	<g>
		<polygon class="st1" points="247.9,190.4 284.3,122 160,24.5 		"/>
		<polygon class="st2" points="371.5,190.3 284.3,122 159.4,356.1 		"/>
	</g>
	<g>
		<g>
			<polygon class="st2" points="561.3,219.7 502.5,219.7 502.5,89.8 456.1,89.8 456.1,259.6 561.3,259.6 			"/>
			<g>
				<circle class="st2" cx="599.9" cy="105.5" r="20.9"/>
				<rect x="579.9" y="133.9" class="st2" width="40" height="125.8"/>
			</g>
			<path class="st2" d="M683.2,195.1c0-4.8,1.4-9.5,4.1-13.5c0,0,0,0,0-0.1c1.3-2,3-4,4.9-6.2c2-2.1,4.2-3.9,6.7-5.2
				c2.5-1.4,5.3-2,8.6-2c6.9,0,11.3,2.6,13.4,7.7c2,5.1,3,11.2,3,18.1v66.7h39.9v-72.7c0-36-13.5-54-40.6-54
				c-7.8,0-14.8,1.5-21.1,4.5c-6.3,3-12.6,8.2-18.9,15.7v-20.3h-39.9l0,126.8h39.9V195.1z"/>
			<path class="st2" d="M827.5,195c0-4.8,1.4-9.5,4.1-13.5c0,0,0,0,0-0.1c1.3-2,3-4,4.9-6.2c2-2.1,4.2-3.9,6.7-5.2
				c2.5-1.4,5.3-2,8.6-2c6.9,0,11.3,2.6,13.4,7.7c2,5.1,3,11.2,3,18.1v66.1h39.9v-72.2c0-36-13.5-54-40.6-54
				c-7.8,0-14.8,1.5-21.1,4.5c-6.3,3-12.6,8.2-18.9,15.7l-0.1-20.3h-40.1l0.3,126.2h39.9V195z"/>
			<path class="st2" d="M1039.8,133.9c0.4-4.1,1.5-7.5,3.4-10c2.4-3.1,5.7-4.7,10-4.7c3.8,0,8.7,0.8,14.8,2.3V89.8
				c-6.7-1.6-13.4-2.3-20.1-2.3c-11.8,0-21.2,2.5-28.4,7.6c-7.2,5.1-12.3,11.6-15.4,19.4c-3.1,7.8-4.6,16.2-4.6,25v2.2v30.1v87.9h40
				v-95.6l20.2-0.2v-30.1L1039.8,133.9"/>
			<g>
				<circle class="st2" cx="951.3" cy="105.5" r="20.9"/>
				<rect x="931.3" y="133.9" class="st2" width="40" height="125.8"/>
			</g>
		</g>
		<polygon class="st2" points="1169.2,133.7 1143.1,196.1 1120.1,133.7 1077.2,133.7 1121.9,242.8 1090.9,316.3 1131.2,316.3 
			1208,133.7 		"/>
	</g>
</g>
</svg>
