<?xml version="1.0" encoding="UTF-8"?>
<svg id="Layer_1" data-name="Layer 1" xmlns="http://www.w3.org/2000/svg" viewBox="0 0 950.89 563.25">
  <defs>
    <style>
      .cls-1 {
        fill: #fff;
      }
    </style>
  </defs>
  <g>
    <path class="cls-1" d="M0,424.89H60.15c11.89,0,21.49,3.37,28.8,10.11,7.31,6.74,10.97,16.21,10.97,28.41,0,10.49-3.26,19.63-9.79,27.41-6.53,7.78-16.51,11.67-29.96,11.67H18.21v56.83H0v-134.42Zm70.63,18.48c-4-1.89-9.48-2.84-16.44-2.84H18.21v46.58H54.19c8.12,0,14.7-1.74,19.76-5.22,5.06-3.48,7.59-9.61,7.59-18.39,0-9.88-3.63-16.59-10.9-20.13Z"/>
    <path class="cls-1" d="M233.98,444.11c8.91,11.9,13.36,27.12,13.36,45.66,0,20.07-5.09,36.75-15.28,50.05-11.96,15.62-29.01,23.42-51.15,23.42-20.68,0-36.94-6.83-48.77-20.5-10.55-13.18-15.83-29.83-15.83-49.96,0-18.18,4.51-33.73,13.54-46.67,11.59-16.59,28.73-24.89,51.43-24.89s41.3,7.63,52.71,22.88Zm-16.06,85.68c7.17-11.51,10.75-24.74,10.75-39.7,0-15.81-4.13-28.54-12.4-38.19-8.27-9.65-19.57-14.47-33.9-14.47s-25.26,4.78-34.04,14.33c-8.78,9.56-13.18,23.64-13.18,42.26,0,14.9,3.77,27.46,11.3,37.69,7.53,10.23,19.75,15.34,36.65,15.34s27.65-5.75,34.82-17.26Z"/>
    <path class="cls-1" d="M269.03,424.89h18.21v118.41h67.44v16.01h-85.65v-134.42Z"/>
    <path class="cls-1" d="M377.37,424.89h18.39v134.42h-18.39v-134.42Z"/>
    <path class="cls-1" d="M425.14,559.31v-134.88h28v51.43h52.43v-51.43h28v134.88h-28v-60.21h-52.43v60.21h-28Z"/>
    <path class="cls-1" d="M599.23,424.43h31.89l47.72,134.88h-30.56l-8.9-27.73h-49.67l-9.14,27.73h-29.48l48.15-134.88Zm-1.86,83.91h34.55l-17.04-53.07-17.51,53.07Z"/>
    <path class="cls-1" d="M708.89,438.53c10.86-11.1,24.68-16.66,41.46-16.66,22.45,0,38.87,7.44,49.25,22.33,5.73,8.36,8.81,16.75,9.23,25.17h-28.18c-1.79-6.47-4.09-11.35-6.9-14.64-5.02-5.86-12.46-8.78-22.32-8.78s-17.96,4.13-23.76,12.4c-5.8,8.27-8.69,19.97-8.69,35.09s3.06,26.46,9.18,34c6.12,7.54,13.89,11.3,23.32,11.3s17.04-3.23,22.11-9.7c2.8-3.48,5.13-8.69,6.98-15.65h28c-2.42,14.7-8.59,26.66-18.51,35.87-9.93,9.21-22.65,13.82-38.16,13.82-19.19,0-34.28-6.22-45.26-18.67-10.98-12.5-16.48-29.65-16.48-51.43,0-23.55,6.25-41.7,18.74-54.45Z"/>
    <path class="cls-1" d="M831.8,424.43h27.73v55.58l52.11-55.58h36.42l-55.35,55.47,58.19,79.41h-36.24l-41.56-58.88-13.57,13.76v45.11h-27.73v-134.88Z"/>
  </g>
  <g>
    <g>
      <path class="cls-1" d="M286.23,235.8h20.46s-1.95-71.13,47.74-77.46c49.7-6.33,146.16,16.57,172.96,13.15,26.8-3.41,76.98,27.77,121.8-164.19,0,0-33.13,38-63.34,40.44,0,0,31.67-15.1,34.11-47.75,0,0-24.36,13.64-48.72,11.21-24.36-2.44-168.08-26.8-236.29,14.62-68.21,41.41-79.41,95-79.41,95v16.56l30.69,98.41Z"/>
      <path class="cls-1" d="M635.07,93.54s-24.36,60.9,0,81.85c24.36,20.95,16.56,50.18,11.69,60.41-4.87,10.23,42.39-9.74,32.64-80.87,0,0-7.31-53.1-44.33-61.39Z"/>
      <path class="cls-1" d="M255.54,120.83s-2.44,8.73,0,16.56"/>
      <path class="cls-1" d="M666.46,244.75c0-.57-1.32-1.83-2.03-1.88-17.58-1.21-56.66-.18-60.01-.16-33.62,.2-72.96,.26-106.58,.41-2.97,.02-3.59,2.75-3.62,4.4-.21,9.73-.39,11.85-10.02,11.88-9.47,.04-18.95-.22-28.41,.07-6.04,.18-8.1-4.06-8.24-8.23-.24-6.82-2.27-8.28-8.54-8.25-30.31,.17-60.63,.15-90.93-.38-6.84-.13-53.18-1-71.16,.24-.69,.05-2.25,1.2-2.25,1.73v25.53c0,.75,1.28,2.36,1.75,2.42,1.45,.24,2.83,.45,4.07,.51,9.91,.43,9.96,.4,10.22,10.58,.41,15.37,1.1,30.75,1.25,46.12,.05,4.9,1.64,7.12,6.54,6.46,6.84-.93,8.79,2.16,9.13,8.81,.21,3.85,2.04,7.7,7.4,6.99,6.21-.83,8.79,.58,8.32,6.65-.1,1.07,1.98,2.65,4.67,2.65h85.33c2.86,0,1.97-6.57,3.58-7.89,2.39-1.96,7.1-.19,10.74-.43,1.22-.09,3.31-2.14,3.34-2.97,.2-4.56-.18-9.03,1.97-11.53,2.06-2.39,6.41-.81,11.11-1.75,1.11-.23,3.37-4.71,3.37-5.77,0-5.77,.02-11.91-.01-18.07-.02-5.38,.71-9.53,6.7-9.65,3.94-.08-3.09-14.26,7.75-14.57,7.3-.22,14.9-.73,21.72,1.19,2.12,.59-.34,11.81,1.45,12.91,1.04,.62,4.92-.32,6.62,.76,1.76,1.11,1.37,5.09,1.47,9.07,.14,5.91-.06,12.55,.62,18.39,.24,1.97,1.44,4.76,5.4,4.6,10.38-.45,10.49,1.39,10.59,12.23,.05,4.26,1.38,5.8,5.7,5.91,9.8,.27,8.95-.42,10.23,6.91,.27,1.46,1.97,.63,5.37,.63h83.11c1.57,0,4.09-3.09,4.32-4.74,.71-4.97,4.2-6.19,10.54-5.3,3.72-.59,5.38-3.33,5.18-6.75-.34-6.21,1.61-9.4,8.41-8.46,5.57,.77,7.38-1.77,7.43-7.25,.15-15.86,1.12-31.67,1.1-47.53-.01-6.67,2.29-8.5,8.69-8.39,5.72,.09,6.25-1.86,6.33-3.09,.52-8.29,.32-16.62,.3-25.04Zm-379.76,21.26c-1.71,0-3.09-1.38-3.09-3.1s1.38-3.09,3.09-3.09,3.1,1.39,3.1,3.09-1.38,3.1-3.1,3.1Zm0-13.33c-1.71,0-3.09-1.38-3.09-3.09s1.38-3.09,3.09-3.09,3.1,1.38,3.1,3.09-1.38,3.09-3.1,3.09Zm154.72,16.2c-.63,12.77-1.08,25.55-1.08,38.33,0,5.97-1.93,7.01-7.98,7.25-.91,.03-2.72,2.15-2.71,2.94,.02,3.58,.08,7.23-.05,10.88-.23,7.2-2.45,7.85-8.34,7.76-6.31-.08-7.3,2.32-7.75,7.93,.31,5.79-1.47,7.66-6.99,7.56-25.1-.55-50.21-.95-75.3-1.26-5.36-.06-7.34-2.58-6.66-7.53,.82-6.06-1.98-8.2-7.68-7.56-5.13,.57-7.29-1.79-7.34-6.91-.19-20.61-.67-41.21-.66-61.82,0-2.3,1.63-6.19,3.74-6.9,2.11-.7,31.18-.21,33.29-.2,28.9,.1,57.8,.43,86.69,.29,7.02-.03,9.13,2.68,8.81,9.25Zm191.79,5.32c-.33,17.27-.89,34.55-.94,51.82-.02,6.4-1.71,10.11-8.83,9.2-5.58-.72-7.22,2.4-6.6,7.23,.77,6.04-2.08,7.84-7.72,7.9-24.14,.24-48.28,.62-72.41,1.23-6.48,.17-8.97-1.45-8.8-8.75,.14-6.25-2.01-6.95-6.6-6.78-9.92,.38-9.76-2.8-9.18-9.56,.2-2.35-.18-4.74,.01-7.1,.28-3.52-.87-5.19-4.68-5.29-4.67-.11-6.43-3.09-6.43-7.59-.03-13.49-.08-26.99-.38-40.47-.11-4.69,1.84-6.23,6.27-6.26,30.3-.09,60.61-.3,90.9-.41,1.43,0,30.26,.01,30.97,.51,1.9,1.34,3.66,3.62,4.26,5.86,.72,2.65,.21,5.64,.16,8.47Zm18.94-8.19c-1.71,0-3.09-1.38-3.09-3.1s1.37-3.09,3.09-3.09,3.09,1.39,3.09,3.09-1.38,3.1-3.09,3.1Zm0-13.33c-1.71,0-3.09-1.38-3.09-3.09s1.37-3.09,3.09-3.09,3.09,1.38,3.09,3.09-1.38,3.09-3.09,3.09Z"/>
    </g>
    <g>
      <path class="cls-1" d="M142.9,178.57c9.17-.24,16.63-2.71,22.41-7.41,5.77-4.7,9.61-11.16,11.52-19.37,1.9-8.21,2.92-22.26,3.04-42.14,.12-19.88,.47-32.97,1.07-39.28,1.07-10,3.06-18.04,5.98-24.11,2.92-6.07,6.52-10.92,10.8-14.55,4.29-3.63,9.76-6.4,16.43-8.3,4.52-1.19,11.9-1.79,22.14-1.79h10v28.04h-5.54c-12.38,0-20.6,2.23-24.64,6.7-4.05,4.46-6.07,14.44-6.07,29.91,0,31.19-.66,50.89-1.96,59.11-2.14,12.74-5.8,22.56-10.98,29.46-5.18,6.91-13.3,13.04-24.37,18.39,13.09,5.48,22.59,13.84,28.48,25.09,5.89,11.25,8.84,29.67,8.84,55.27,0,23.21,.24,37.02,.71,41.43,.95,8.1,3.36,13.75,7.23,16.96,3.87,3.22,11.46,4.82,22.77,4.82h5.54v28.04h-10c-11.67,0-20.12-.96-25.36-2.86-7.62-2.74-13.93-7.17-18.93-13.3-5-6.13-8.25-13.9-9.73-23.3-1.49-9.41-2.29-24.82-2.41-46.25-.12-21.43-1.13-36.25-3.04-44.46-1.91-8.21-5.74-14.7-11.52-19.46-5.78-4.76-13.24-7.26-22.41-7.5v-29.11Z"/>
      <path class="cls-1" d="M793.49,178.57v29.11c-9.17,.24-16.64,2.74-22.41,7.5-5.78,4.76-9.62,11.22-11.52,19.37-1.9,8.16-2.92,22.17-3.04,42.05-.12,19.88-.48,32.97-1.07,39.28-1.07,10.12-3.06,18.18-5.98,24.2-2.92,6.01-6.52,10.83-10.8,14.46-4.29,3.63-9.76,6.4-16.43,8.3-4.53,1.31-11.91,1.97-22.14,1.97h-10v-28.04h5.54c12.38,0,20.59-2.23,24.64-6.7,4.05-4.46,6.07-14.5,6.07-30.09,0-29.76,.53-48.63,1.61-56.6,1.9-13.21,5.71-23.78,11.43-31.7,5.71-7.92,13.81-14.08,24.28-18.48-13.69-6.55-23.33-15.21-28.93-25.98-5.6-10.77-8.39-28.96-8.39-54.55,0-23.21-.3-37.08-.89-41.61-.83-7.97-3.19-13.54-7.05-16.7-3.87-3.15-11.46-4.73-22.77-4.73h-5.54V21.61h10c11.67,0,20.12,.95,25.36,2.86,7.62,2.62,13.93,7.03,18.93,13.21,5,6.19,8.24,13.99,9.73,23.39,1.49,9.41,2.29,24.82,2.41,46.25,.12,21.43,1.13,36.22,3.04,44.37,1.9,8.16,5.74,14.61,11.52,19.37,5.77,4.76,13.24,7.26,22.41,7.5Z"/>
    </g>
  </g>
</svg>