<svg width="4630" height="768" viewBox="0 0 4630 768" fill="none" xmlns="http://www.w3.org/2000/svg">
<path fill-rule="evenodd" clip-rule="evenodd" d="M4426.41 314.348C4426.3 392.495 4426.41 470.684 4425.83 548.79C4425.73 560.286 4428.91 561.535 4439.06 557.938C4454.21 552.564 4469.62 547.646 4485.24 543.601C4497.2 540.546 4501.43 534.991 4501.4 522.332C4501.22 464.396 4501.04 406.501 4501.98 348.566C4503.34 265.481 4502.64 182.353 4503.18 99.2669C4503.19 92.4607 4500.57 90.0915 4494.42 88.423C4475.85 83.3343 4457.23 78.287 4438.96 72.2442C4429.02 68.9519 4426.44 70.6084 4426.51 81.0255C4426.79 158.8 4426.51 236.574 4426.41 314.348ZM3869.82 377.29C3887.21 369.387 3903.87 361.774 3920.57 354.161C3922.72 353.209 3924.79 352.133 3926.94 351.181C3929.44 349.981 3932.41 348.45 3934.47 351.109C3937.05 354.515 3932.91 355.672 3931.15 357.039C3913.92 370.462 3896.78 383.968 3879.13 396.767C3873.45 400.868 3871.16 404.891 3871.24 411.739C3871.47 434.399 3867.74 456.514 3857.68 477.251C3838.92 516.071 3807.53 535.492 3762.76 534.642C3717.07 533.791 3686.35 511.712 3670.66 471.641C3653.86 428.871 3654.22 384.963 3671.14 342.115C3687.11 301.839 3721.47 279.89 3765.34 279.909C3808.87 279.927 3842.27 301.554 3859.42 340.879C3864.31 352.133 3867.17 363.965 3869.82 377.29ZM4293.88 404.139C4293.92 435.722 4289.71 462.278 4275.57 486.537C4256.17 519.836 4226.25 535.565 4186.85 535.345C4146.76 535.083 4115.89 518.689 4098.78 483.887C4073.94 433.221 4074.01 381.053 4099.72 330.705C4118.14 294.707 4150.98 279.355 4192.23 280.74C4233.31 282.124 4262.31 301.545 4279.64 337.136C4290.67 359.604 4294.29 383.638 4293.88 404.139ZM2943.81 407.685C2943.18 396.188 2944.44 384.486 2946.13 372.743C2953.43 322.661 2985.82 288.549 3033.28 281.393C3066.37 276.458 3098.75 279.865 3129.92 291.362C3139.34 294.819 3141.67 292.706 3143.53 284.201C3146.12 272.293 3149.24 260.387 3153.64 249.021C3157.27 239.73 3154.22 236.198 3145.27 233.53C3107.09 222.313 3068.26 216.823 3028.42 221.375C2967.32 228.305 2920.74 256.67 2891.72 309.669C2868.78 351.637 2863.77 396.66 2870.33 442.985C2880.04 511.849 2916.32 561.286 2986.06 584.291C3023 596.501 3061.24 596.927 3099.66 591.543C3117.99 588.995 3136.36 586.447 3153.79 579.831C3158.26 578.136 3162.57 576.897 3161.24 570.379C3158.17 555.808 3155.43 541.195 3153.17 526.501C3152.32 520.772 3150.6 519.898 3145.05 521.924C3116.99 532.303 3087.78 535.5 3057.84 535.002C2998.48 534.008 2960.62 504.697 2947.62 448.901C2944.5 435.45 2943.14 421.836 2943.81 407.685ZM3583.88 409.933C3583.39 423.835 3584.96 440.895 3589.15 457.626C3605.19 521.726 3643.03 568.136 3710.15 586.198C3779.17 604.761 3843.06 593.685 3895.18 543.166C3952.34 487.756 3964.31 381.072 3922.69 308.262C3890.72 252.274 3840.08 223.942 3775.13 221.155C3707.86 218.324 3652.04 241.53 3614.45 297.796C3592.42 330.76 3583.64 367.601 3583.88 409.933ZM4006.18 407.525C4005.93 432.176 4009.29 456.21 4017.74 479.504C4045.29 555.407 4111.43 598.162 4198.46 594.089C4268.8 590.783 4320.76 558.4 4350.61 496.23C4372.27 451.023 4374.4 403.548 4363.11 355.39C4353.91 316.2 4334.22 282.847 4301.21 257.942C4257.56 224.93 4207.41 215.855 4153.54 224.331C4115.38 230.296 4082.32 246.52 4056 274.248C4020.25 311.965 4006.59 357.474 4006.18 407.525ZM3285.59 235.255L3285.61 221.809C3285.67 180.639 3285.47 139.428 3286.04 98.2589C3286.14 90.2077 3283.52 86.9255 3275.82 84.8398C3259.83 80.6262 3244.13 75.5 3228.31 70.7886C3213.73 66.3694 3213.69 66.3693 3213.67 81.2269L3213.02 550.319C3213.02 551.855 3213.19 553.391 3213.02 554.885C3212.02 563.101 3215.24 564.848 3223.12 561.912C3240.03 555.627 3257.07 549.467 3274.29 544.054C3282.68 541.368 3285.48 537.512 3285.45 528.672C3285.12 454.301 3285.52 379.972 3285.33 305.6C3285.29 297.881 3287.06 294.107 3295.45 292.334C3321.44 286.891 3347.39 282.445 3374.1 284.266C3416.46 287.188 3437.78 304.647 3447.7 344.544C3451.55 360.154 3453.33 376.093 3453.4 392.071C3453.66 455.777 3453.7 519.482 3453.44 583.145C3453.38 590.74 3454.76 593.937 3463.57 593.618C3480.18 593.101 3496.78 593.331 3513.34 594.267C3523.19 594.82 3526.04 591.836 3525.96 582.249C3525.57 522.361 3525.87 462.516 3525.99 402.63C3526.02 383.165 3525.58 363.783 3522.76 344.481C3515.35 293.673 3493.03 253.178 3440.76 233.227C3415.65 223.647 3389.41 221.578 3362.78 221.79C3336.59 222.045 3311.29 227.53 3285.59 235.255ZM2622.02 590.06C2643.05 590.338 2663.92 588.831 2684.57 585.124C2720.63 578.616 2754.11 566.46 2779.4 539.768C2814.25 503.045 2817.06 458.85 2806.63 413.101C2796.92 370.382 2766.37 343.489 2727.77 324.055C2701.51 310.779 2674.03 300.159 2646.52 289.663C2623.35 280.874 2600.26 271.878 2580.28 257.117C2558.88 241.359 2550.09 220.223 2553.35 194.869C2556.52 169.724 2572.46 153.892 2596.22 144.67C2608.79 139.79 2621.82 137.152 2635.33 136.382C2678.74 133.91 2720.37 140.648 2759.36 159.793C2765.8 162.956 2768.13 161.465 2770.37 155.616C2775.55 142.052 2780.56 128.364 2786.9 115.299C2791.26 106.341 2789.85 101.193 2780.3 97.901C2776.61 96.6094 2773.17 94.6541 2769.47 93.2795C2716.42 73.3689 2661.49 67.6908 2605.35 75.25C2567.27 80.3854 2532.67 93.9505 2506.86 122.8C2451.24 185.018 2468.53 280.163 2542.85 323.054C2567.39 337.198 2594.22 346.365 2620.83 355.906C2647.1 365.321 2673.76 373.907 2696.75 390.083C2726.49 410.957 2738.45 440.44 2730.36 472.966C2722.15 505.866 2696.06 518.073 2665.38 523.011C2606.01 532.558 2548.94 524.387 2495.03 498.374C2486.43 494.212 2483.77 495.993 2481.17 504.041C2476.85 517.481 2472.02 530.797 2466.28 543.738C2462.65 551.908 2464.46 555.729 2472.71 559.392C2520.13 580.582 2570.1 589.573 2622.02 590.06ZM4567.18 6.26712C4578.88 10.4748 4590.83 14.2264 4600.63 22.2497C4618.76 37.0906 4628.8 55.7387 4628.77 79.0211C4628.46 304.499 4628.06 529.977 4628.1 755.456C4628.08 765.665 4625.41 767.944 4615.04 767.93C3897.33 766.696 3179.65 765.711 2461.94 764.767C2433.33 764.728 2408.05 758.012 2390.01 734.621C2379.24 720.621 2374.74 704.927 2374.76 687.538C2375.16 464.384 2375.46 241.188 2375.73 17.9924C2375.73 13.0952 2375.14 8.15569 2374.8 3.25803L4567.18 6.26712Z" fill="#DF177C"/>
<mask id="mask0_1663_83" style="mask-type:alpha" maskUnits="userSpaceOnUse" x="0" y="63" width="2284" height="547">
<path fill-rule="evenodd" clip-rule="evenodd" d="M0.958984 63.0436L2283.76 66.1768L2283.01 609.899L0.212714 606.766L0.958984 63.0436Z" fill="white"/>
</mask>
<g mask="url(#mask0_1663_83)">
<path fill-rule="evenodd" clip-rule="evenodd" d="M118.68 428.707C156.091 428.758 193.288 428.809 230.485 428.903C237.874 428.914 237.497 423.494 238.4 418.506C245.715 378.777 252.517 339.004 260.771 299.491C262.705 290.29 261.384 288.74 252.8 288.815C221.453 289.116 190.063 289.675 158.803 288.428C146.505 287.981 143.594 292.793 141.786 303.328C134.554 344.95 126.554 386.398 118.68 428.707ZM1437.8 110.753C1437.84 86.2387 1449 74.7279 1472.66 74.7604C1494.87 74.7909 1505.14 87.0192 1506.39 110.933C1507.68 135.406 1489.6 148.241 1471.45 147.958C1450.1 147.671 1435.34 130.49 1437.8 110.753ZM1449.2 411.351C1449.28 350.065 1449.62 288.823 1449.19 227.536C1449.12 216.913 1452.37 215.627 1460.82 219.466C1472.26 224.643 1488.96 223.849 1494.88 233.405C1500.42 242.229 1496.47 257.104 1496.46 269.318C1496.39 377.655 1496.07 485.905 1496.31 594.199C1496.34 604.091 1493.98 607.314 1484.12 606.311C1472.89 605.263 1457.59 609.973 1451.28 604.201C1443.9 597.482 1449.13 581.92 1449.11 570.222C1448.88 517.236 1449.13 464.294 1449.2 411.351ZM1437.86 68.3889C1423.11 83.1203 1419.67 99.4156 1421.31 116.191C1387.67 113.779 1355.25 111.756 1328.53 136.105C1316 147.485 1311.07 163.004 1308.27 179.128C1306.2 191.039 1300.55 206.557 1307.28 214.307C1314.19 222.187 1330.17 215.973 1342.17 216.936C1352.55 217.724 1366.43 212.367 1372.4 219.3C1377.52 225.242 1373.96 238.827 1373.98 249.063C1374.09 266.783 1374 266.782 1356.02 266.758C1343.47 266.741 1330.87 267.368 1318.36 266.448C1308.41 265.746 1305.33 268.15 1305.36 279.031C1305.73 382.982 1305.16 486.931 1305.53 590.925C1305.6 603.139 1302.77 607.651 1290.39 606.086C1281.51 604.998 1272.37 605.459 1263.35 605.962C1256.86 606.384 1255.63 603.801 1255.64 597.823C1255.99 466.994 1255.53 336.163 1256.77 205.335C1257.03 175.832 1262.28 146.422 1277.39 119.563C1292.93 91.9303 1316.78 77.3404 1346.13 69.8543C1366.68 64.6355 1387.69 64.5353 1408.62 65.2952C1417.41 65.6083 1426.17 67.0826 1437.86 68.3889ZM1578.75 420.989C1578.83 362.885 1578.99 304.782 1578.86 246.678C1578.83 238.851 1580.93 235.886 1589.04 233.489C1639.12 218.849 1690.28 214.102 1741.87 217.829C1791.91 221.467 1830.45 244.357 1849.68 299.046C1857.8 322.196 1861.61 346.199 1861.53 370.843C1861.31 444.73 1860.9 518.66 1861.53 592.591C1861.64 605.15 1857.88 608.198 1846.61 606.806C1839.65 605.937 1832.43 606.013 1825.47 606.777C1816.41 607.711 1813.72 604.869 1813.82 595.321C1814.39 527.757 1814.65 460.149 1814.14 392.54C1813.92 368.584 1811.18 344.84 1802.92 321.819C1789.27 284.04 1764.52 269.426 1728.35 267.398C1697.26 265.635 1666.34 266.41 1635.62 273.593C1626.05 275.816 1626.01 280.074 1626 287.17C1625.9 388.755 1625.76 490.339 1625.62 591.923C1625.62 594.289 1625.36 596.697 1625.65 599.063C1626.33 604.655 1624.19 607.232 1618.51 606.364C1618.08 606.278 1617.7 606.363 1617.32 606.363C1604.8 606.044 1588.4 610.538 1580.93 604.248C1573.13 597.7 1578.7 580.548 1578.63 568.075C1578.44 519.046 1578.68 470.061 1578.75 420.989ZM918.356 372.473C919.594 372.647 920.363 372.863 921.132 372.864C980.792 372.946 1040.45 373.028 1100.11 373.153C1128.04 373.191 1128.51 373.106 1124.07 345.661C1120.59 324.324 1112.25 304.185 1096.3 289.798C1056.63 254.004 990.858 257.871 952.498 295.88C931.544 316.667 920.362 342.585 918.356 372.473ZM1046.45 422.883C1006.43 422.828 966.376 422.988 926.361 422.546C918.716 422.45 916.109 424.424 916.696 432.296C919.127 465.802 927.796 497.167 951.036 522.186C968.989 541.478 993.279 549.167 1018.64 553.288C1044.9 557.495 1071.21 556.8 1097.05 550.858C1110 547.865 1122.52 542.979 1135.04 538.481C1141.19 536.253 1144.69 534.967 1145.45 544.086C1146.29 554.753 1149.05 565.337 1151.73 575.705C1153.25 581.643 1151.07 584.693 1146.12 586.407C1124.15 594.075 1102.28 601.399 1078.62 603.732C1057.13 605.853 1035.99 605.609 1014.86 602.956C981.253 598.782 950.348 587.944 924.329 564.727C892.723 536.471 877.91 500.496 871.732 459.329C864.876 413.645 865.706 368.832 881.61 325.158C900.901 272.242 935.247 233.41 990.826 220.154C1034.79 209.677 1078.85 213.823 1116.87 241.573C1148.35 264.582 1164.19 297.849 1171.61 336.05C1176.53 361.345 1175.43 386.675 1176.12 412.094C1176.37 420.61 1174.61 423.446 1165.39 423.304C1125.76 422.648 1086.12 422.937 1046.45 422.883ZM2127.59 374.561L2208.78 374.672C2233.42 374.706 2234.57 374.535 2231.06 350.36C2226.49 319.173 2212.09 293.392 2183.33 277.956C2165.02 268.125 2145.38 266.549 2124.88 267.553C2100.58 268.724 2080.36 278.674 2062.92 294.262C2042.14 312.727 2030.74 336.409 2025.71 364.185C2023.73 375.192 2027.02 374.552 2034.62 374.519C2065.63 374.347 2096.63 374.518 2127.59 374.561ZM2022.37 424.222C2024.09 445.084 2026.84 464.441 2033.26 483.158C2046.45 521.797 2073.84 544.242 2112.6 552.209C2156.88 561.344 2200.53 558.479 2242.41 539.785C2248.22 537.213 2251.08 538.722 2252.26 544.831C2254.55 556.532 2254.79 568.618 2258.96 579.892C2260.71 584.582 2257.16 586.082 2253.96 587.411C2233.74 595.684 2213.02 602.278 2191.28 604.7C2175.82 606.399 2160.32 608.012 2144.69 607.045C2107.11 604.671 2070.9 596.836 2039.84 574.172C2007.68 550.731 1990.25 517.505 1981.3 478.958C1974.5 449.746 1973.09 420.112 1974.76 390.525C1977.08 349.8 1988.32 311.194 2013.05 278.499C2041.63 240.648 2079.45 218.766 2128.1 217.801C2153.89 217.277 2179.13 218.946 2202.47 230.762C2242.89 251.246 2266.12 284.997 2276.22 328.964C2282.93 358.176 2283.31 387.723 2283.27 417.441C2283.26 427.204 2277.07 424.486 2272.24 424.479C2193.37 424.457 2114.49 424.349 2035.65 424.241L2022.37 424.222ZM737.764 425.124C737.815 387.578 737.141 350.031 738.302 312.573C738.748 299.327 733.504 292.998 722.962 287.65C690.997 271.521 657.827 262.315 621.65 265.62C581.8 269.307 549.704 286.38 530.992 322.438C508.769 365.286 506.869 411.259 517.61 457.98C524.742 489.214 541.534 514.138 567.688 531.894C590.814 547.58 617.283 553.81 644.827 555.052C672.499 556.337 700.095 550.827 727.808 553.058C736.648 553.758 737.848 550.19 737.773 542.406C737.443 503.311 737.71 464.218 737.764 425.124ZM738.018 243.974L738.111 176.495C738.154 145.271 738.367 114.048 738.154 82.8238C738.079 75.3833 739.323 71.5573 748.249 71.0105C758.798 70.3368 769.18 67.0825 779.604 64.7313C785.628 63.3203 788.53 64.7436 787.794 71.5808C787.361 75.838 787.697 80.2253 787.691 84.5691C787.457 254.923 787.138 425.19 787.246 595.459C787.233 605.135 785.306 608.573 775.229 607.699C729.154 603.722 682.899 606.669 636.864 604.628C584.937 602.32 539.309 583.678 505.158 542.473C483.541 516.466 472.352 485.657 466.717 452.448C462.693 428.53 463.239 404.403 465.065 380.708C468.718 332.846 484.835 289.258 520.712 255.89C548.72 229.909 582.69 216.752 620.956 215.987C648.032 215.379 675.237 214.728 700.974 225.516C712.883 230.521 725.348 234.28 738.018 243.974ZM0.698234 238.791C32.8988 238.835 65.0995 238.751 97.2998 239.01C103.62 239.062 105.885 238.334 107.176 230.594C113.378 192.54 121.075 154.79 128.002 116.91C128.82 112.61 131.381 113.302 133.944 113.305C146.542 113.237 159.097 113.555 171.611 113.185C177.504 113.021 178.312 115.947 177.409 120.418C170.443 155.116 163.349 189.814 156.425 224.511C155.522 229.026 156.925 233.888 154.441 239.002C191.724 239.053 228.579 239.018 265.477 239.198C271.371 239.249 273.125 236.843 274.201 230.952C280.914 193.846 288.395 156.869 295.066 119.72C295.97 114.56 297.338 113.271 302.121 113.407C314.292 113.639 326.464 113.569 338.635 113.5C342.521 113.463 345.596 113.596 344.521 119.142C337.166 157.323 329.981 195.547 322.669 233.728C322.368 235.19 320.743 236.349 322.448 239.233C338.719 239.255 355.929 239.537 373.055 239.13C379.802 239.011 383.089 240.09 382.523 248.003C381.74 258.625 381.853 269.377 382.437 280.001C382.811 287.183 380.886 289.589 373.413 289.278C356.16 288.695 338.82 289.704 321.611 288.734C313.412 288.292 310.46 292.245 309.426 298.609C302.792 340.446 294.663 382.024 285.809 423.471C284.305 430.393 289.431 428.938 293.019 428.943C319.283 429.022 345.59 429.402 371.897 428.879C380.097 428.719 382.913 430.744 382.261 439.215C381.435 449.45 381.507 459.815 382.176 470.052C382.721 477.708 379.9 479.166 372.896 479.071C343.856 478.644 314.773 479.206 285.776 478.521C277.619 478.338 274.967 481.947 273.762 488.569C267.35 524.213 260.98 559.858 254.653 595.546C253.706 600.921 252.078 604.789 245.245 604.565C231.495 604.116 217.828 604.398 203.052 604.378C210.965 564.477 218.663 525.308 226.361 486.138C227.436 480.678 225.688 478.525 219.709 478.56C185.159 478.77 150.61 478.981 116.061 478.245C107.435 478.061 107.554 484.212 106.737 488.468C99.9407 524.069 93.6993 559.757 87.4152 595.402C86.3391 601.594 83.6869 604.773 76.7264 604.333C66.5203 603.76 56.2284 603.531 46.1058 604.377C37.5636 605.097 36.8866 600.451 38.0052 594.474C43.7272 563.818 49.4065 533.161 55.7263 502.591C56.9731 496.571 56.5972 490.378 58.997 484.36C61.2254 478.772 56.5283 478.379 52.2149 478.416C34.9614 478.478 17.6654 478.411 0.369383 478.387L0.437797 428.542C20.8087 428.569 41.2224 428.511 61.5931 428.711C67.6146 428.763 70.1792 427.175 71.3843 420.381C78.6572 379.921 86.5705 339.59 94.5266 299.26C96.118 291.005 93.8582 288.378 85.274 288.538C57.0871 289.016 28.8587 288.633 0.629878 288.594L0.698234 238.791Z" fill="#3C526B"/>
</g>
</svg>
