<?xml version="1.0" encoding="UTF-8"?> <svg xmlns="http://www.w3.org/2000/svg" xmlns:xlink="http://www.w3.org/1999/xlink" viewBox="0 0 824.05 118.27"><defs><style>.cls-1{fill:#0f1129;}.cls-2{fill:#f6b917;}.cls-3,.cls-8{fill:#fff;}.cls-4{fill:url(#linear-gradient);}.cls-5{fill:url(#linear-gradient-2);}.cls-6{fill:url(#linear-gradient-3);}.cls-7{fill:url(#linear-gradient-4);}.cls-8{stroke:#f6b917;stroke-miterlimit:10;stroke-width:0.33px;}.cls-9{opacity:0.3;}.cls-10{fill:url(#linear-gradient-5);}.cls-11{fill:url(#linear-gradient-6);}.cls-12{fill:url(#linear-gradient-7);}</style><linearGradient id="linear-gradient" x1="809.75" y1="115.31" x2="800.48" y2="89.84" gradientUnits="userSpaceOnUse"><stop offset="0" stop-color="#f6b917" stop-opacity="0.4"></stop><stop offset="0.67" stop-color="#f6b917" stop-opacity="0.12"></stop><stop offset="1" stop-color="#f6b917" stop-opacity="0"></stop></linearGradient><linearGradient id="linear-gradient-2" x1="809.77" y1="115.09" x2="801.73" y2="92.99" xlink:href="#linear-gradient"></linearGradient><linearGradient id="linear-gradient-3" x1="810.9" y1="114.94" x2="806.47" y2="102.76" gradientUnits="userSpaceOnUse"><stop offset="0" stop-color="#f6b917" stop-opacity="0.6"></stop><stop offset="0.27" stop-color="#f6b917" stop-opacity="0.43"></stop><stop offset="0.77" stop-color="#f6b917" stop-opacity="0.12"></stop><stop offset="1" stop-color="#f6b917" stop-opacity="0"></stop></linearGradient><linearGradient id="linear-gradient-4" x1="809.39" y1="114.3" x2="805.48" y2="103.57" xlink:href="#linear-gradient"></linearGradient><linearGradient id="linear-gradient-5" x1="803.22" y1="88.63" x2="813.98" y2="88.63" gradientUnits="userSpaceOnUse"><stop offset="0" stop-color="#f6b917"></stop><stop offset="0.07" stop-color="#f6b917" stop-opacity="0.92"></stop><stop offset="0.54" stop-color="#f6b917" stop-opacity="0.43"></stop><stop offset="0.85" stop-color="#f6b917" stop-opacity="0.12"></stop><stop offset="1" stop-color="#f6b917" stop-opacity="0"></stop></linearGradient><linearGradient id="linear-gradient-6" x1="805.71" y1="85.59" x2="811.97" y2="85.59" xlink:href="#linear-gradient-5"></linearGradient><linearGradient id="linear-gradient-7" x1="806.6" y1="91.65" x2="808.51" y2="91.65" xlink:href="#linear-gradient-5"></linearGradient></defs><title>Asset 4</title><g id="Layer_2" data-name="Layer 2"><g id="Layer_1-2" data-name="Layer 1"><rect class="cls-1" y="34.76" width="16.23" height="82.13" rx="4.98" ry="4.98"></rect><path class="cls-1" d="M108.69,34.13c-14.66,0-24.51,5.31-30.13,16.24l-1.64,3.2V39.75a5,5,0,0,0-5-5H65.52a5,5,0,0,0-5,5v72.16a5,5,0,0,0,5,5h6.42a5,5,0,0,0,5-5V73.15c1.37-14.29,11-23.58,24.66-23.73,13,0,21.06,8.12,21.06,21.2v41.28a5,5,0,0,0,5,5h6.42a5,5,0,0,0,5-5V65.58C139,45.89,127.69,34.13,108.69,34.13Z"></path><path class="cls-1" d="M239.06,34.76H233.6a5,5,0,0,0-4.71,3.34l-22.46,64.47L183.65,38.09a5,5,0,0,0-4.7-3.32h-6.24a5,5,0,0,0-4.65,6.78L196,113.71a5,5,0,0,0,4.65,3.18h10.73a5,5,0,0,0,4.65-3.2l27.67-72.16a5,5,0,0,0-4.65-6.77Z"></path><path class="cls-1" d="M265.78,76c0,24.85,16.88,41.54,42,41.54,11.51,0,21.75-3.37,29.62-9.74a4.7,4.7,0,0,0,1.75-3.37,5.5,5.5,0,0,0-1.57-4.15l-1.48-1.58a5.11,5.11,0,0,0-6.75-.54,33.78,33.78,0,0,1-20.14,6.45c-13.64,0-23.93-8.3-26.86-21.65l-.23-1.06H341a5,5,0,0,0,5-5c.16-14.58-3.39-25.64-10.54-32.87-6.49-6.56-15.94-9.89-28.1-9.89C282.86,34.29,265.78,51.5,265.78,76Zm65.89-6.5,0,.91H281.87l.15-1c2.12-13.87,11.87-22.49,25.45-22.49C321.75,46.9,331,55.55,331.67,69.48Z"></path><path class="cls-1" d="M430.28,34.13c-14.66,0-24.51,5.31-30.13,16.24l-1.64,3.2V39.75a5,5,0,0,0-5-5H387.1a5,5,0,0,0-5,5v72.16a5,5,0,0,0,5,5h6.42a5,5,0,0,0,5-5V73.15c1.37-14.29,11.05-23.58,24.66-23.73,13,0,21.06,8.12,21.06,21.2v41.28a5,5,0,0,0,5,5h6.43a5,5,0,0,0,5-5V65.58C460.62,45.89,449.28,34.13,430.28,34.13Z"></path><path class="cls-1" d="M546.45,107.5l-.89-2.7a4.92,4.92,0,0,0-2.5-2.88,5,5,0,0,0-3.88-.25,22.83,22.83,0,0,1-7.39,1.36c-6.82,0-9.86-3.77-9.86-12.22V49.74h19.77a5,5,0,0,0,5-5V42.9a5,5,0,0,0-5-5H521.94v-18a5,5,0,0,0-5-5h-6.27a5,5,0,0,0-5,5v18h-6.84a5,5,0,0,0-5,5v1.85a5,5,0,0,0,5,5h6.84V94.12c0,14.76,8.46,23.57,22.62,23.57a37.25,37.25,0,0,0,15.58-3.59,5.18,5.18,0,0,0,2.54-6.59Z"></path><path class="cls-2" d="M571.22,108.28l21.22-70.11a5.31,5.31,0,0,1,6.62-3.54l7,2.13a5.31,5.31,0,0,1,3.54,6.62l-21.22,70.11a5.31,5.31,0,0,1-6.62,3.54l-7-2.13A5.31,5.31,0,0,1,571.22,108.28Z"></path><path class="cls-2" d="M663.42,27.12V37H680a5.31,5.31,0,0,1,5.31,5.31V45.3A5.31,5.31,0,0,1,680,50.6h-16.6v61.85a5.31,5.31,0,0,1-5.31,5.31h-7.35a5.31,5.31,0,0,1-5.31-5.31V50.6h-5.73a5.31,5.31,0,0,1-5.31-5.31V42.36A5.31,5.31,0,0,1,639.72,37h5.73v-8.2C645.45,9.3,659.79,0,674.3,0a33.64,33.64,0,0,1,14.17,3A5.34,5.34,0,0,1,691,10.24l-2.26,4.53A5.3,5.3,0,0,1,682,17.29a19,19,0,0,0-7.19-1.52C668.62,15.77,663.42,19.23,663.42,27.12Z"></path><path class="cls-2" d="M734.2,27.12V37h16.6a5.31,5.31,0,0,1,5.31,5.31V45.3a5.31,5.31,0,0,1-5.31,5.31H734.2v61.85a5.31,5.31,0,0,1-5.31,5.31h-7.35a5.31,5.31,0,0,1-5.31-5.31V50.6H710.5a5.31,5.31,0,0,1-5.31-5.31V42.36A5.31,5.31,0,0,1,710.5,37h5.73v-8.2C716.23,9.3,730.57,0,745.07,0a33.64,33.64,0,0,1,14.17,3,5.34,5.34,0,0,1,2.55,7.22l-2.26,4.53a5.3,5.3,0,0,1-6.78,2.52,19,19,0,0,0-7.19-1.52C739.4,15.77,734.2,19.23,734.2,27.12Z"></path><rect class="cls-3" x="789.8" y="83.66" width="33.99" height="33.99"></rect><path class="cls-4" d="M801.29,90.76a9.86,9.86,0,0,0-.73.74A20.4,20.4,0,0,0,799.15,93a8.68,8.68,0,0,0-.87,1.6,9.65,9.65,0,0,0-.74,2.53,3.64,3.64,0,0,0,.15,2.52c1.07,2,4.3,3.3,6.11,4.23a37.63,37.63,0,0,0,5.37,2.33,18.63,18.63,0,0,0,5.83,1.13,10.3,10.3,0,0,0,3.31-.52h0c1.08-.37,2.19.48,1.73,1.36-2.15,4.1-7.19,7-13.05,7a15.85,15.85,0,0,1-10.56-3.82,11.27,11.27,0,0,1-3.59-9.65,12.87,12.87,0,0,1,2-5.86,18.83,18.83,0,0,1,3.54-4.12,13.55,13.55,0,0,1,1.91-1.33,14.47,14.47,0,0,1,2.77-1.54.8.8,0,0,1,.26-.05c.21,0,.4.14.6.1a.34.34,0,0,1-.24.3,3.35,3.35,0,0,1-.41.09A5.46,5.46,0,0,0,801.29,90.76Z"></path><path class="cls-5" d="M807.68,107.52a13.84,13.84,0,0,0,4.15,2.19,17.4,17.4,0,0,0,5.63.92l.83,0a13.33,13.33,0,0,1-9.81,4,13.89,13.89,0,0,1-8.31-2.65,9.9,9.9,0,0,1-3.88-6.55,10.23,10.23,0,0,1,1.54-6.74,17.62,17.62,0,0,1,3.52-4.49,9.24,9.24,0,0,1,4.19-2.49c-.06.31-.36.5-.63.67a6.1,6.1,0,0,0-2.32,2.56c-.59,1.26-1.44,2.27-1.4,3.74a4.32,4.32,0,0,0,1.45,2.67C804.36,103.32,805.58,105.85,807.68,107.52Z"></path><path class="cls-6" d="M795.8,107h0c-1.08-.36-2.18.48-1.73,1.33,2.14,4,7.16,6.85,13,6.85,7.78,0,14.1-5,14.1-11.18,0-.24,0-.49,0-.72a.9.9,0,0,0-.22-.5,4.72,4.72,0,0,0-2.92-1.74,6.28,6.28,0,0,0-3.82,1l-.09,0a62.73,62.73,0,0,1-9.16,4.27,18.8,18.8,0,0,1-5.81,1.1A10.4,10.4,0,0,1,795.8,107Z"></path><path class="cls-7" d="M796.68,110.81l-.83,0a13.49,13.49,0,0,0,9.81,3.91c6.74,0,12.23-4.35,12.23-9.69a7.76,7.76,0,0,0-.14-1.47h0a4.28,4.28,0,0,0-3.59-2.69,4.81,4.81,0,0,0-2.64.59,5.15,5.15,0,0,0-2,2.05l0,.06a32.64,32.64,0,0,1-3,4.21,11,11,0,0,1-4.14,2.16A17.77,17.77,0,0,1,796.68,110.81Z"></path><path class="cls-2" d="M824.05,84.21v33.1a1,1,0,0,1-1,1H790a1,1,0,0,1-1-1V84.21a1,1,0,0,1,1-1h33.1A1,1,0,0,1,824.05,84.21Zm-3,19.82c0-.24,0-.48,0-.72a.87.87,0,0,0-.22-.49,4.68,4.68,0,0,0-2.91-1.73,4.44,4.44,0,0,0-2.14.28,4.16,4.16,0,0,0-1.66-.5,4.8,4.8,0,0,0-2.62.58,5.1,5.1,0,0,0-2,2l0,.06-1,1.43-1.22.55q-1.15-.48-2.27-1c-.77-1.08-1.49-2.19-2.34-3.18a4.31,4.31,0,0,1-1.44-2.65c0-1.46.8-2.47,1.39-3.72a6,6,0,0,1,2.31-2.54c.26-.17.83-.57.62-.67-1-.15-2.94,1.41-4.16,2.48a17.5,17.5,0,0,0-3.5,4.46c-.11.18-.24.36-.35.55a4.42,4.42,0,0,1,.06-2,9.61,9.61,0,0,1,.74-2.51,8.81,8.81,0,0,1,.86-1.59,20.44,20.44,0,0,1,1.4-1.53,9.06,9.06,0,0,1,.73-.74,5.45,5.45,0,0,1,2-1.43,3.29,3.29,0,0,0,.41-.09c.13-.05.24-.13.23-.26s-.39-.13-.59-.13a.76.76,0,0,0-.25.05,14.28,14.28,0,0,0-2.75,1.52,13.07,13.07,0,0,0-1.9,1.32A18.67,18.67,0,0,0,795,95.91a12.79,12.79,0,0,0-2,5.82A12.15,12.15,0,0,0,794,108a.89.89,0,0,0,.1.33,10.75,10.75,0,0,0,1.42,2h0c.12.14.23.27.36.4h0c.25.26.51.5.79.74l.23.19a14.07,14.07,0,0,0,3.13,2h0a16.71,16.71,0,0,0,7,1.5C814.76,115.14,821.05,110.16,821.05,104Zm-5.74-19h0l-8.7.13.22,1.24-2.87.46,1.49,1.23-.26.14.49.66,1.12.3.65.54.07.36-.29,1.09.34.74.26-.15.34,1.87,1.64-2,.94.78Z"></path><polygon class="cls-2" points="815.31 85.04 815.31 85.04 810.74 92.46 809.8 91.68 808.16 93.66 807.82 91.79 807.57 91.94 807.22 91.2 807.51 90.11 807.45 89.74 806.8 89.2 805.68 88.9 805.19 88.24 805.46 88.1 803.97 86.86 806.84 86.4 806.61 85.16 815.31 85.04"></polygon><path class="cls-2" d="M815.52,85.08l.22-.27h-.06l0-.05-.34.06-9,.13.23,1.28-3.1.5,1.6,1.32-.22.11.64.87,1.15.31.59.49.05.27-.3,1.12.45,1,.21-.12.37,2,1.77-2.14,1,.8Zm-7.93,4.58L807,86.5l8-1.29-5.19,6.26Zm-.8-4.38,6.34-.09-6.17,1Zm.09,3.8-1.14-.33-.34-.47.32-.17-1.42-1.17,2.39-.39.51,2.78Zm1.38,4.26-.33-1.78-.31.18-.25-.53.28-1.05,1.92,1.58ZM810,91.68l4-4.79-3.29,5.35Z"></path><path class="cls-8" d="M803.39,85l8.8-.13L805,93.57l-.35-1.89L804.3,90Z"></path><path class="cls-8" d="M803.57,89.06l-1.35-1.12-1.51-1.25,11.48-1.85-4.62,7.51Z"></path><g class="cls-9"><path class="cls-2" d="M814.64,84.66l-4.91,8-1-.8L807,94l-.78-4.25-3.76-3.1,3.1-.5-.23-1.28,8.9-.12Zm-5,7.49,4.34-7-10.76,1.74,5.6,4.63Zm-3.77-6.07,6.1-1-6.27.08Zm1.31,7.15,1.32-1.59-1.91-1.57Z"></path><polygon class="cls-10" points="813.98 85.11 809.64 92.15 808.82 91.47 803.22 86.84 813.98 85.11"></polygon><polygon class="cls-11" points="811.97 85.1 805.87 86.08 805.71 85.18 811.97 85.1"></polygon><polygon class="cls-12" points="808.5 91.64 807.18 93.23 806.6 90.06 808.5 91.64"></polygon></g></g></g></svg> 