<svg id="Layer_1" data-name="Layer 1" xmlns="http://www.w3.org/2000/svg" viewBox="0 0 1920 1080"><defs><style>.cls-1{fill:#00529b;}.cls-1,.cls-2{fill-rule:evenodd;}.cls-2{fill:#fff;}</style></defs><title>DeLonghi</title><path class="cls-1" d="M1569,835.06c163,0,295-132.09,295-295.07s-132.1-295-295-295H351.06C188.1,244.94,56,377,56,540S188.1,835.06,351.06,835.06Z"/><path class="cls-2" d="M1564.39,799.74c143.31,0,259.49-116.17,259.49-259.48S1707.7,280.77,1564.39,280.77H354.54C211.23,280.77,95.05,397,95.05,540.26S211.23,799.74,354.54,799.74Z"/><path class="cls-1" d="M1565.74,745c113.28,0,205.1-91.82,205.1-205.09S1679,334.82,1565.74,334.82H356.43c-113.27,0-205.1,91.81-205.1,205.09S243.16,745,356.43,745Z"/><path class="cls-2" d="M351.87,452.16h5.89c16.27,0,21.31,5.87,21.31,23.28V566c0,17.4-5,23.29-21.31,23.29h-5.89V452.16Zm-84.39-52.43v42.62c8.68,3.65,9.24,10.65,9.53,19.06V578.34c-.29,8.13-1.13,15.43-9.53,19.06V640h106c22.71,0,44-1.39,61.13-17.66,18.22-17.1,19.35-35.32,19.35-58.88v-90c0-23-2-44.86-21.59-60.28-17.1-13.18-40.66-13.46-61.13-13.46Z"/><path class="cls-2" d="M564.69,525.62H538.9v-6.71c0-7,1.11-18,12.89-18s12.9,10.95,12.9,18v6.71Zm-92,49.92c0,21.3.86,40.93,19.36,54.67,14.58,10.93,41.78,15.43,68.7,13.46,27.19-2,54.4-10.09,69-22.71v-44.3H563.58v6.44c0,9-.86,19.35-12.35,19.35s-12.61-11.5-12.33-20.2V566h90.84V524.23c1.13-43.19-14.87-64.77-79.91-64.49-62,.27-78.23,19.62-77.12,67.85v47.95Z"/><path class="cls-2" d="M644.88,640V597.4c9-5.6,8.14-14.58,8.14-23.55V465.91c0-9,.84-18-8.14-23.56V399.73H736v42.62c-9,5.61-8.14,14.58-8.14,23.56V589h7.29c19.07,0,18.79-11.51,18.79-26.65v-39h65.89V640Z"/><path class="cls-2" d="M903.14,527.31c0-9.82-1.7-26.37,12.61-26.37s12.34,16.82,12.34,26.37v51c0,9.53.83,24.11-12.62,24.11-13.17,0-12.33-14.58-12.33-24.11v-51Zm91.12-.57c0-22.42-1.42-43.75-22.72-56.63-15.42-9-42.35-10.37-60.28-10.37-19.91,0-41.5,1.67-57.48,14.29C837.23,486.93,837,507.68,837,526.74v46c0,23.26,0,44.86,21.59,59.15C874,642.26,899.77,643.67,918,643.67c20.19,0,43.75-1.69,59.73-15.42s16.55-35.89,16.55-55.51v-46Z"/><path class="cls-2" d="M1082.87,474.32c17.94-12.07,33.64-15.14,47.67-14.58,13.73.55,25.78,5.05,32.5,11.76,12.08,11.49,13.46,24.41,13.46,39.54v66.17c0,8.7-.82,18.51,7.87,23.29V640H1114c-3.93-17.94-3.65-36.72-3.65-54.95V533.48c0-1.13.85-9.25-2-15.72-4.48-6.72-11.77-11.76-22.7-6.72v66.17c0,8.7-.84,18.51,8.12,23.29V640h-82.43V600.5c8.69-5.06,8.13-13.19,8.13-22.16V524.79c0-9.54.28-15.71-8.13-21.89V463.37h71.51v10.95Z"/><path class="cls-2" d="M1293.72,590.39a25.4,25.4,0,0,1-11.79,3.1c-13.44,0-13.44-15.44-13.44-25v-39c0-10.09,0-21.88,13.18-21.88a22.6,22.6,0,0,1,12,3.64v79.07Zm74.31-127h-72.61v10.1c-12.64-9.53-28.06-13.73-43.77-13.73-39.52,0-49.34,24.1-49.34,62.52v66.46c0,38.67,19.07,54.95,52.44,54.95a65.52,65.52,0,0,0,39-12.9V642c0,10.09,1.7,27.49-12.89,27.49-5.33,0-8.42-2.81-10.37-6.73-1.69-3.93-2-9-2-12.9h-61.42v42.34c25.8,14.29,48,18.79,77.4,18.79,20.19,0,45.7-2.53,60.85-17.38,15.41-14.87,14.59-41.78,14.59-61.7V524.79c0-9-.58-16.56,8.12-21.89V463.37Z"/><path class="cls-2" d="M1460.55,471.24a81.12,81.12,0,0,1,44.86-11.5c13.75.55,25.8,5.05,32.54,11.76,12,11.49,13.45,24.41,13.45,39.54v66.17c0,8.7-.85,18.51,7.85,23.29V640h-70.37c-3.93-17.94-3.65-36.72-3.65-54.95V533.48c0-1.13.84-9.25-2-15.72-4.48-6.72-11.79-11.76-22.72-6.72v66.17c0,8.7-.84,18.51,8.13,23.29V640h-82.43V600.5c8.69-5.06,8.13-13.19,8.13-22.16V462.54c.28-9,.84-18.52-8.42-23.27V399.73h74.59v71.51Z"/><path class="cls-2" d="M1649.54,577.21c0,9-.84,17.95,8.41,23.29V640h-82.72V600.5c8.7-5.34,8.14-13.19,8.14-22.16V526.18c0-9,.84-17.95-8.14-23.28V463.37h74.31V577.21ZM1578,424.41c0-19.07,19.62-26.93,35.9-26.93,16.53,0,35.6,9,35.6,28,0,18.49-18.78,27.19-35,27.19-17.37,0-36.45-8.41-36.45-28.31Z"/><polygon class="cls-2" points="481.18 426.72 623.8 426.72 623.8 439.05 481.18 439.05 481.18 426.72 481.18 426.72"/></svg>