<?xml version="1.0" encoding="UTF-8"?><svg id="Layer_2" xmlns="http://www.w3.org/2000/svg" viewBox="0 0 568 555.65"><defs><style>.cls-1{fill:#e15153;}</style></defs><g id="Layer_1-2"><g><path class="cls-1" d="M160.96,371.61c.32,0,.63,0,.93,.01v23.36h-.66c-13.51,0-23.58,3.9-30.77,11.9-4.84,5.39-8.08,12.42-9.66,20.98h30.36v23.93h-31.56v49.56h-23.93v-61.48c0-4.12,.26-8.12,.78-12,.71-5.2,1.88-10.19,3.51-14.91,2.88-8.36,7.18-15.68,12.76-21.75,5.61-6.09,12.54-10.93,20.62-14.39,8.07-3.44,17.34-5.2,27.6-5.2Z"/><path class="cls-1" d="M321.04,378.72v64.32c0,7.89-1.26,15.34-3.76,22.13-2.52,6.86-6.22,12.87-10.96,17.86-4.77,5.01-10.72,8.99-17.64,11.81-6.9,2.83-14.8,4.25-23.49,4.25s-16.57-1.43-23.47-4.25c-6.94-2.83-12.87-6.81-17.64-11.81-4.76-4.99-8.45-11-10.96-17.86-2.5-6.78-3.77-14.23-3.77-22.13v-64.32h20.95v63c0,11.85,3.05,21.09,9.07,27.41,6.04,6.37,14.49,9.47,25.83,9.47s19.8-3.1,25.85-9.47c6.01-6.32,9.06-15.56,9.06-27.41v-63h20.95Z"/><path class="cls-1" d="M474.71,499.1v-64.32c0-7.89-1.26-15.34-3.76-22.13-2.52-6.86-6.22-12.87-10.96-17.86-4.77-5.01-10.72-8.99-17.64-11.81-6.9-2.83-14.8-4.25-23.49-4.25s-16.57,1.43-23.47,4.25c-6.94,2.83-12.87,6.81-17.64,11.81-4.76,4.99-8.45,11-10.96,17.86-2.5,6.78-3.77,14.23-3.77,22.13v64.32h20.95v-63c0-11.85,3.05-21.09,9.07-27.41,6.04-6.37,14.49-9.47,25.83-9.47s19.8,3.1,25.85,9.47c6.01,6.32,9.06,15.56,9.06,27.41v63h20.95Z"/><path class="cls-1" d="M327.82,100.69c-3.55-8.18-8.59-15.24-14.94-21.02-6.31-5.75-13.87-10.26-22.46-13.4-8.53-3.13-17.93-4.72-27.93-4.72s-19.4,1.59-27.93,4.72c-8.59,3.14-16.15,7.66-22.46,13.4-6.37,5.78-11.39,12.84-14.94,21.02-3.55,8.15-5.35,17.22-5.35,26.95s1.8,18.8,5.35,26.95c3.54,8.16,8.57,15.23,14.94,21.02,6.31,5.75,13.87,10.25,22.46,13.4,8.53,3.13,17.93,4.72,27.93,4.72s19.4-1.59,27.93-4.72c8.59-3.16,16.15-7.66,22.46-13.4,6.37-5.78,11.39-12.86,14.94-21.02,3.55-8.16,5.35-17.23,5.35-26.95s-1.8-18.78-5.35-26.95Zm-19.19,47.1c-2.62,5.87-6.13,10.78-10.55,14.75-4.43,3.98-9.7,7-15.83,9.07-6.13,2.07-12.72,3.11-19.76,3.11s-13.62-1.04-19.76-3.11c-6.13-2.07-11.41-5.09-15.83-9.07-4.42-3.97-7.94-8.88-10.55-14.75-2.62-5.86-3.92-12.58-3.92-20.15s1.3-14.3,3.92-20.17c2.61-5.86,6.13-10.77,10.55-14.75,4.42-3.96,9.7-6.98,15.83-9.06,6.13-2.07,12.72-3.11,19.76-3.11s13.62,1.04,19.76,3.11c6.13,2.07,11.4,5.09,15.83,9.06,4.42,3.98,7.93,8.89,10.55,14.75,2.61,5.87,3.92,12.58,3.92,20.17s-1.32,14.3-3.92,20.15Z"/><path class="cls-1" d="M481.48,261.21c-3.55-8.18-8.59-15.24-14.94-21.02-6.31-5.75-13.87-10.26-22.46-13.4-8.53-3.13-17.93-4.72-27.93-4.72s-19.4,1.59-27.93,4.72c-8.59,3.14-16.15,7.66-22.46,13.4-6.37,5.78-11.39,12.84-14.94,21.02-3.55,8.15-5.35,17.2-5.35,26.95s1.8,18.8,5.35,26.95c3.54,8.16,8.57,15.23,14.94,21.02,6.31,5.75,13.87,10.25,22.46,13.4,8.53,3.13,17.93,4.72,27.93,4.72s19.4-1.59,27.93-4.72c8.59-3.16,16.15-7.66,22.46-13.4,6.37-5.78,11.39-12.86,14.94-21.02,3.55-8.16,5.35-17.22,5.35-26.95s-1.8-18.78-5.35-26.95Zm-19.19,47.1c-2.62,5.87-6.13,10.78-10.55,14.75-4.43,3.98-9.7,7-15.83,9.07-6.13,2.07-12.72,3.11-19.76,3.11s-13.62-1.04-19.76-3.11c-6.13-2.07-11.41-5.09-15.83-9.07-4.42-3.97-7.94-8.88-10.55-14.75-2.62-5.86-3.92-12.58-3.92-20.15s1.3-14.3,3.92-20.17c2.61-5.86,6.13-10.77,10.55-14.75,4.42-3.96,9.7-6.98,15.83-9.06,6.13-2.07,12.72-3.11,19.76-3.11s13.62,1.04,19.76,3.11,11.4,5.09,15.83,9.06c4.42,3.98,7.93,8.89,10.55,14.75,2.61,5.87,3.92,12.58,3.92,20.17s-1.32,14.3-3.92,20.15Z"/><path class="cls-1" d="M498.32,0H69.68C31.25,0,0,31.25,0,69.68V485.97c0,38.43,31.25,69.68,69.68,69.68H498.32c38.43,0,69.68-31.25,69.68-69.68V69.68c0-38.43-31.25-69.68-69.68-69.68Zm50.48,485.97c0,27.84-22.64,50.48-50.48,50.48H69.68c-27.84,0-50.48-22.64-50.48-50.48V69.68c0-27.84,22.64-50.48,50.48-50.48H498.32c27.84,0,50.48,22.64,50.48,50.48V485.97Z"/><path class="cls-1" d="M326.93,263.96c-3.55-8.18-8.57-15.24-14.93-21.02-6.32-5.75-13.88-10.26-22.46-13.4-8.55-3.13-17.95-4.72-27.95-4.72-11.04,0-21.4,2.32-30.76,6.91-5.67,2.77-10.74,6.2-15.19,10.26v-29.33h-23.93v76.08c0,11.15,1.85,21.13,5.47,29.62,3.65,8.53,8.67,15.76,14.95,21.46,6.26,5.68,13.75,10.02,22.29,12.9,8.41,2.84,17.55,4.28,27.15,4.28s19.41-1.59,27.95-4.72c8.57-3.16,16.13-7.66,22.45-13.4,6.37-5.78,11.4-12.86,14.95-21.02,3.54-8.16,5.34-17.22,5.34-26.95s-1.8-18.78-5.35-26.95Zm-19.19,47.1c-2.62,5.87-6.13,10.78-10.55,14.75-4.42,3.98-9.7,7-15.83,9.07-6.13,2.07-12.72,3.11-19.76,3.11s-13.57-1.04-19.62-3.11c-6.04-2.07-11.32-5.09-15.83-9.07-4.5-3.97-8.03-8.88-10.55-14.75-2.52-5.86-3.79-12.58-3.79-20.15s1.26-14.3,3.79-20.17c2.52-5.86,6.05-10.77,10.55-14.75,4.51-3.96,9.8-6.98,15.83-9.06,6.05-2.07,12.58-3.11,19.62-3.11s13.62,1.04,19.76,3.11c6.13,2.07,11.41,5.09,15.83,9.06,4.42,3.98,7.93,8.89,10.55,14.75,2.62,5.87,3.92,12.58,3.92,20.17s-1.3,14.3-3.92,20.15Z"/><path class="cls-1" d="M160.96,61.55c.32,0,.63,0,.93,.01v23.36h-.66c-13.51,0-23.58,3.9-30.77,11.9-7.2,8.03-10.85,19.66-10.85,34.6v59.86h-23.93v-61.49c0-9.6,1.44-18.66,4.29-26.9,2.88-8.36,7.18-15.67,12.76-21.75,5.61-6.08,12.54-10.92,20.62-14.39,8.07-3.46,17.34-5.2,27.6-5.2Z"/></g></g></svg>