<svg id="Layer_1" data-name="Layer 1" xmlns="http://www.w3.org/2000/svg" viewBox="0 0 1920 1080"><defs><style>.cls-1{fill:#f7981d;}</style></defs><title>Continental</title><path class="cls-1" d="M1813.93,523.6c-1.51-5.76-3.76-12.26-5.51-15.51,0,0,1-1,3,.24s14.76,10,14.76,10c6.51,9.52,10.51,48.57,10.76,62.6-6-2.76-14.52-7.51-20-12.78Z"/><path class="cls-1" d="M1775.37,487.29a284,284,0,0,1-27.8-35c5.51-10.52,9.52-38.31,7-49.07-1-3.26-10-15.28-11.53-17-2.25-2.25-9.51-10.51-13-10.51a3,3,0,0,0-1.76.5l1,9.26c-9.77,6.26-22.53,14.78-34.06,23.28a98.89,98.89,0,0,0,.51,10,18.18,18.18,0,0,0,6,3.51c4.5-.76,18.53-4.27,22.27-3.76l-13.75,20.78L1694.5,450.5l-19.78-6.26a3.12,3.12,0,0,0-3.26,1L1656.94,461a3.91,3.91,0,0,0-1.25,3.24l-.51,17.79s-.24,2.75-.24,5.75c0,12.77,5.75,18.78,5.75,18.78l9.52-13.78a43.4,43.4,0,0,1-4-10c0-.5.26-15.27.26-15.27l9.27-6.78L1700.25,478s6.76,12.52,13.28,20c4.25,5.26,25.52,19.53,35.79,25.54a145.58,145.58,0,0,0,5,19.26l30.05,30.81L1766.61,596c-6.26,4-12.28,11.28-11.78,18h20.54l2.26-11.77,24.53-27.29c1.26-1.5,1.26-2.26.51-4.51l-7-23.53c3.51-4,11-14,11-26,0-21.79-23.78-27.29-31.29-33.56Z"/><path class="cls-1" d="M1664.7,442.48c-.76.26-19,5.26-19,5.26s-8.51,3.26-12.27,5.76-8,6.76-8.26,9l16.26,3.75a78,78,0,0,1,7.77-7.77l3.76-1.73L1666.45,443a1.66,1.66,0,0,0-1.75-.5Z"/><path class="cls-1" d="M1741.56,583.19l23-22,9.52,9.51-24.79,21c-2,2.5-3.5,6.51-4.75,9H1726.3C1727.3,594,1736.81,585.44,1741.56,583.19Z"/><rect class="cls-1" x="1619.38" y="621.74" width="244.62" height="8.01"/><path class="cls-1" d="M1178.45,515.08c0-15-4.76-26.79-17.76-26.79s-18.3,11.78-18.3,26.79V614h15.29v15.77h-83.63V614h15.51V477.79h-15.51V462.51h65.84V488h.75c6.26-14,20.79-28.77,44.08-28.77,24.54,0,39.55,15,44.31,34.78,1.76,7.77,2.26,20.54,2.26,27V614h20v15.77h-72.86V515.08Z"/><path class="cls-1" d="M838.69,515.08c0-15-4.76-26.79-17.77-26.79s-18.28,11.78-18.28,26.79V614h15.27v15.77H734.28V614h15.53V477.79H734.28V462.51h65.86V488h.74c6.26-14,20.79-28.77,44.07-28.77,24.54,0,39.56,15,44.31,34.78,1.76,7.77,2.27,20.54,2.27,27V614h20v15.77H838.68V515.08Z"/><path class="cls-1" d="M1322.17,477.79V601.46c0,8.52,5.52,10.53,10.76,10.53a32.44,32.44,0,0,0,9.79-1.75v15.25s-10,6.27-32.31,6.27c-26,0-41.32-12.78-41.32-39.81V477.79h-17.78V466.51c19.78-15.76,42.82-33.8,61.1-49.06h9.76v45.06h25.55v15.28Z"/><path class="cls-1" d="M278.58,375.64s40.33,40.29,58.84,61.08V452.5c-17.26-18.28-53.07-33.56-86.38-33.56-75.36,0-122.68,56.84-122.68,127.19,0,70.09,44.81,126.94,122.68,126.94,38.81,0,69.86-18.29,87.13-37.05v15c-23.54,32.3-66.59,53.33-120.17,53.33-95.91,0-162-69.6-162-158.23s73.37-158,162-158a181.47,181.47,0,0,1,60.59,10V375.64Z"/><path class="cls-1" d="M1062,541.37c0-47-19.25-82.12-69.56-82.12-50.61,0-76.41,38.81-76.41,87.14s25.8,86.38,76.41,86.38c32.5,0,53-15.3,65.07-39.35l-8.75-8.22c-7.54,8.76-19.26,15.53-36.84,15.53-15.29,0-38.81-8.52-39.8-47.34h89.42C1061.78,550.42,1062,544.33,1062,541.37Zm-89.88-4.26c0-44.07,3.5-60.59,18.57-60.59s18.27,16.06,18.72,60.59Z"/><path class="cls-1" d="M257,454.53c-53,0-84.09,41-84.09,91.63S204,637.79,257,637.79s84.18-41.09,84.18-91.63S310.16,454.53,257,454.53Zm0,164.69c-17.27,0-22-22.52-22-73.59s4.72-73.6,22-73.6,22.08,22.53,22.08,73.6S274.31,619.22,257,619.22Z"/><path class="cls-1" d="M459.61,515.08c0-15-4.76-26.79-17.77-26.79s-18.28,11.78-18.28,26.79V614h15.27v15.77H355.2V614h15.53V477.79H355.2V462.51h65.85v25.54h.75c6.26-14,20.79-28.78,44.07-28.78,24.54,0,39.57,15,44.31,34.78,1.75,7.77,2.25,20.54,2.25,27V614h20.05v15.77H459.61Z"/><path class="cls-1" d="M646.64,418.19c0,14.77,13.28,24.55,32.31,24.55s32.29-9.78,32.29-24.55S698,393.66,679,393.66s-32.31,9.78-32.31,24.53Z"/><path class="cls-1" d="M603.33,477.79V601.46c0,8.52,5.51,10.53,10.77,10.53a32.11,32.11,0,0,0,9.75-1.75v15.25s-10,6.27-32.28,6.27c-26,0-41.32-12.78-41.32-39.81V477.79H532.47V466.51c19.79-15.76,42.82-33.8,61.08-49.06h9.78v45.06h20.52v15.28Z"/><polygon class="cls-1" points="1580.08 613.98 1600.6 613.98 1600.6 629.75 1527.23 629.75 1527.23 415.94 1508.96 415.94 1508.96 400.68 1580.08 400.68 1580.08 613.98 1580.08 613.98"/><path class="cls-1" d="M1491.71,614V519.83c0-36.53-24-60.58-64.62-60.58-24,0-49.85,11.79-66.59,37.82l9.28,11.27s12.94-19.56,38.29-19.56c18.26,0,30.74,10.8,30.74,31.05v10.58s-8.22-3.58-23.74-3.58c-38.06,0-61.88,21.31-61.88,54.87,0,27.78,17,51.07,44.37,51.07,20,0,33-9.28,42.78-23.06h.76v20h67.58V614Zm-52.9-15.52c-2,2.28-5.93,5-12.48,5-13.54,0-18.26-12.79-18.26-28.54,0-16,3.5-31.58,19.25-31.58,6.77,0,10,2,11.49,3.5Z"/><polyline class="cls-1" points="636.88 629.75 636.88 613.98 652.16 613.98 652.16 477.79 636.88 477.79 636.88 462.51 704.99 462.51 704.99 613.98 720.51 613.98 720.51 629.75"/></svg>